{
	"asset":{
		"generator":"Khronos glTF Blender I/O v3.6.28",
		"version":"2.0"
	},
	"scene":0,
	"scenes":[
		{
			"name":"Scene",
			"nodes":[
				0,
				1,
				2,
				3,
				4,
				5
			]
		}
	],
	"nodes":[
		{
			"mesh":0,
			"name":"\ufffd\ufffd\ufffd\ufffd001",
			"rotation":[
				0.7071068286895752,
				0,
				0,
				0.7071068286895752
			]
		},
		{
			"mesh":1,
			"name":"\ufffd\ufffd\ufffd\ufffd002",
			"rotation":[
				0.7071068286895752,
				0,
				0,
				0.7071068286895752
			]
		},
		{
			"mesh":2,
			"name":"\ufffd\ufffd\ufffd\ufffd003",
			"rotation":[
				0.7071068286895752,
				0,
				0,
				0.7071068286895752
			]
		},
		{
			"mesh":3,
			"name":"\ufffd\ufffd\ufffd\ufffd003.001",
			"rotation":[
				0.7071068286895752,
				0,
				0,
				0.7071068286895752
			]
		},
		{
			"mesh":4,
			"name":"\ufffd\ufffd\ufffd\ufffd003.002",
			"rotation":[
				0.7071068286895752,
				0,
				0,
				0.7071068286895752
			]
		},
		{
			"mesh":5,
			"name":"\ufffd\ufffd\ufffd\ufffd001.001",
			"rotation":[
				0.7071068286895752,
				0,
				0,
				0.7071068286895752
			]
		}
	],
	"materials":[
		{
			"doubleSided":true,
			"emissiveFactor":[
				1,
				1,
				1
			],
			"emissiveTexture":{
				"index":0
			},
			"name":"\u6750\u8d28.013",
			"normalTexture":{
				"index":1
			},
			"pbrMetallicRoughness":{
				"baseColorTexture":{
					"index":2
				},
				"metallicFactor":0,
				"roughnessFactor":0.5
			}
		},
		{
			"doubleSided":true,
			"emissiveFactor":[
				1,
				1,
				1
			],
			"emissiveTexture":{
				"index":3
			},
			"name":"\u6750\u8d28.014",
			"normalTexture":{
				"index":4
			},
			"pbrMetallicRoughness":{
				"baseColorTexture":{
					"index":5
				},
				"metallicFactor":0,
				"roughnessFactor":0.5
			}
		},
		{
			"doubleSided":true,
			"emissiveFactor":[
				1,
				1,
				1
			],
			"emissiveTexture":{
				"index":6
			},
			"name":"\u6750\u8d28.015",
			"normalTexture":{
				"index":7
			},
			"pbrMetallicRoughness":{
				"baseColorTexture":{
					"index":8
				},
				"metallicRoughnessTexture":{
					"index":9
				}
			}
		},
		{
			"doubleSided":true,
			"emissiveFactor":[
				1,
				1,
				1
			],
			"emissiveTexture":{
				"index":10
			},
			"name":"\u6750\u8d28.016",
			"normalTexture":{
				"index":11
			},
			"pbrMetallicRoughness":{
				"baseColorTexture":{
					"index":12
				},
				"metallicFactor":0,
				"roughnessFactor":0.5
			}
		}
	],
	"meshes":[
		{
			"name":"\ufffd\ufffd\ufffd\ufffd001",
			"primitives":[
				{
					"attributes":{
						"POSITION":0,
						"NORMAL":1,
						"TEXCOORD_0":2
					},
					"indices":3,
					"material":0
				}
			]
		},
		{
			"name":"\ufffd\ufffd\ufffd\ufffd002",
			"primitives":[
				{
					"attributes":{
						"POSITION":4,
						"NORMAL":5,
						"TEXCOORD_0":6
					},
					"indices":7,
					"material":1
				}
			]
		},
		{
			"name":"\ufffd\ufffd\ufffd\ufffd003",
			"primitives":[
				{
					"attributes":{
						"POSITION":8,
						"NORMAL":9,
						"TEXCOORD_0":10
					},
					"indices":11,
					"material":2
				}
			]
		},
		{
			"name":"\ufffd\ufffd\ufffd\ufffd003.001",
			"primitives":[
				{
					"attributes":{
						"POSITION":12,
						"NORMAL":13,
						"TEXCOORD_0":14
					},
					"indices":15,
					"material":3
				}
			]
		},
		{
			"name":"\ufffd\ufffd\ufffd\ufffd003.002",
			"primitives":[
				{
					"attributes":{
						"POSITION":16,
						"NORMAL":17,
						"TEXCOORD_0":18
					},
					"indices":19,
					"material":2
				}
			]
		},
		{
			"name":"\ufffd\ufffd\ufffd\ufffd001.001",
			"primitives":[
				{
					"attributes":{
						"POSITION":20,
						"NORMAL":21,
						"TEXCOORD_0":22
					},
					"indices":23,
					"material":0
				}
			]
		}
	],
	"textures":[
		{
			"sampler":0,
			"source":0
		},
		{
			"sampler":0,
			"source":1
		},
		{
			"sampler":0,
			"source":2
		},
		{
			"sampler":0,
			"source":3
		},
		{
			"sampler":0,
			"source":4
		},
		{
			"sampler":0,
			"source":5
		},
		{
			"sampler":0,
			"source":3
		},
		{
			"sampler":0,
			"source":4
		},
		{
			"sampler":0,
			"source":6
		},
		{
			"sampler":0,
			"source":7
		},
		{
			"sampler":0,
			"source":8
		},
		{
			"sampler":0,
			"source":9
		},
		{
			"sampler":0,
			"source":10
		}
	],
	"images":[
		{
			"bufferView":4,
			"mimeType":"image/png",
			"name":"\u846b\u82a6\u4e1d_\u6750\u8d28.009_Emissive"
		},
		{
			"bufferView":5,
			"mimeType":"image/png",
			"name":"\u846b\u82a6\u4e1d_\u6750\u8d28.009_Normal"
		},
		{
			"bufferView":6,
			"mimeType":"image/png",
			"name":"\u846b\u82a6\u4e1d_\u6750\u8d28.009_Metallic"
		},
		{
			"bufferView":11,
			"mimeType":"image/png",
			"name":"\u846b\u82a6\u4e1d_\u6750\u8d28.006_Emissive"
		},
		{
			"bufferView":12,
			"mimeType":"image/png",
			"name":"\u846b\u82a6\u4e1d_\u6750\u8d28.006_Normal"
		},
		{
			"bufferView":13,
			"mimeType":"image/png",
			"name":"\u846b\u82a6\u4e1d_\u6750\u8d28.006_Metallic"
		},
		{
			"bufferView":18,
			"mimeType":"image/png",
			"name":"\u846b\u82a6\u4e1d_\u6750\u8d28.006_BaseColor"
		},
		{
			"bufferView":19,
			"mimeType":"image/png",
			"name":"\u846b\u82a6\u4e1d_\u6750\u8d28.006_Metallic.png-\u846b\u82a6\u4e1d_\u6750\u8d28.006_Roughness"
		},
		{
			"bufferView":24,
			"mimeType":"image/png",
			"name":"\u846b\u82a6\u4e1d_\u6750\u8d28.008_Emissive"
		},
		{
			"bufferView":25,
			"mimeType":"image/png",
			"name":"\u846b\u82a6\u4e1d_\u6750\u8d28.008_Normal"
		},
		{
			"bufferView":26,
			"mimeType":"image/png",
			"name":"\u846b\u82a6\u4e1d_\u6750\u8d28.008_Metallic"
		}
	],
	"accessors":[
		{
			"bufferView":0,
			"componentType":5126,
			"count":7753,
			"max":[
				53.81565475463867,
				22.24898910522461,
				-17.318527221679688
			],
			"min":[
				-119.73246002197266,
				-10.286913871765137,
				-29.877113342285156
			],
			"type":"VEC3"
		},
		{
			"bufferView":1,
			"componentType":5126,
			"count":7753,
			"type":"VEC3"
		},
		{
			"bufferView":2,
			"componentType":5126,
			"count":7753,
			"type":"VEC2"
		},
		{
			"bufferView":3,
			"componentType":5123,
			"count":42216,
			"type":"SCALAR"
		},
		{
			"bufferView":7,
			"componentType":5126,
			"count":2244,
			"max":[
				138.51698303222656,
				10.328025817871094,
				-19.59918975830078
			],
			"min":[
				128.23231506347656,
				2.339975118637085,
				-27.596452713012695
			],
			"type":"VEC3"
		},
		{
			"bufferView":8,
			"componentType":5126,
			"count":2244,
			"type":"VEC3"
		},
		{
			"bufferView":9,
			"componentType":5126,
			"count":2244,
			"type":"VEC2"
		},
		{
			"bufferView":10,
			"componentType":5123,
			"count":12870,
			"type":"SCALAR"
		},
		{
			"bufferView":14,
			"componentType":5126,
			"count":1836,
			"max":[
				128.52102661132812,
				32.75855255126953,
				2.8571760654449463
			],
			"min":[
				-119.73246002197266,
				-20.09145164489746,
				-50.052818298339844
			],
			"type":"VEC3"
		},
		{
			"bufferView":15,
			"componentType":5126,
			"count":1836,
			"type":"VEC3"
		},
		{
			"bufferView":16,
			"componentType":5126,
			"count":1836,
			"type":"VEC2"
		},
		{
			"bufferView":17,
			"componentType":5123,
			"count":9900,
			"type":"SCALAR"
		},
		{
			"bufferView":20,
			"componentType":5126,
			"count":68,
			"max":[
				92.83137512207031,
				17.639135360717773,
				-12.313918113708496
			],
			"min":[
				89.6028060913086,
				-4.903282165527344,
				-34.8817253112793
			],
			"type":"VEC3"
		},
		{
			"bufferView":21,
			"componentType":5126,
			"count":68,
			"type":"VEC3"
		},
		{
			"bufferView":22,
			"componentType":5126,
			"count":68,
			"type":"VEC2"
		},
		{
			"bufferView":23,
			"componentType":5123,
			"count":198,
			"type":"SCALAR"
		},
		{
			"bufferView":27,
			"componentType":5126,
			"count":1323,
			"max":[
				-119.25052642822266,
				13.123641014099121,
				-17.05722999572754
			],
			"min":[
				-129.5408172607422,
				0.057064998894929886,
				-30.138633728027344
			],
			"type":"VEC3"
		},
		{
			"bufferView":28,
			"componentType":5126,
			"count":1323,
			"type":"VEC3"
		},
		{
			"bufferView":29,
			"componentType":5126,
			"count":1323,
			"type":"VEC2"
		},
		{
			"bufferView":30,
			"componentType":5123,
			"count":7326,
			"type":"SCALAR"
		},
		{
			"bufferView":31,
			"componentType":5126,
			"count":160,
			"max":[
				23.227895736694336,
				8.263049125671387,
				-28.92337417602539
			],
			"min":[
				-119.73246002197266,
				3.9160609245300293,
				-29.445741653442383
			],
			"type":"VEC3"
		},
		{
			"bufferView":32,
			"componentType":5126,
			"count":160,
			"type":"VEC3"
		},
		{
			"bufferView":33,
			"componentType":5126,
			"count":160,
			"type":"VEC2"
		},
		{
			"bufferView":34,
			"componentType":5123,
			"count":510,
			"type":"SCALAR"
		}
	],
	"bufferViews":[
		{
			"buffer":0,
			"byteLength":93036,
			"byteOffset":0,
			"target":34962
		},
		{
			"buffer":0,
			"byteLength":93036,
			"byteOffset":93036,
			"target":34962
		},
		{
			"buffer":0,
			"byteLength":62024,
			"byteOffset":186072,
			"target":34962
		},
		{
			"buffer":0,
			"byteLength":84432,
			"byteOffset":248096,
			"target":34963
		},
		{
			"buffer":0,
			"byteLength":1832,
			"byteOffset":332528
		},
		{
			"buffer":0,
			"byteLength":351981,
			"byteOffset":334360
		},
		{
			"buffer":0,
			"byteLength":681,
			"byteOffset":686344
		},
		{
			"buffer":0,
			"byteLength":26928,
			"byteOffset":687028,
			"target":34962
		},
		{
			"buffer":0,
			"byteLength":26928,
			"byteOffset":713956,
			"target":34962
		},
		{
			"buffer":0,
			"byteLength":17952,
			"byteOffset":740884,
			"target":34962
		},
		{
			"buffer":0,
			"byteLength":25740,
			"byteOffset":758836,
			"target":34963
		},
		{
			"buffer":0,
			"byteLength":1832,
			"byteOffset":784576
		},
		{
			"buffer":0,
			"byteLength":5711,
			"byteOffset":786408
		},
		{
			"buffer":0,
			"byteLength":1832,
			"byteOffset":792120
		},
		{
			"buffer":0,
			"byteLength":22032,
			"byteOffset":793952,
			"target":34962
		},
		{
			"buffer":0,
			"byteLength":22032,
			"byteOffset":815984,
			"target":34962
		},
		{
			"buffer":0,
			"byteLength":14688,
			"byteOffset":838016,
			"target":34962
		},
		{
			"buffer":0,
			"byteLength":19800,
			"byteOffset":852704,
			"target":34963
		},
		{
			"buffer":0,
			"byteLength":5715,
			"byteOffset":872504
		},
		{
			"buffer":0,
			"byteLength":85882,
			"byteOffset":878220
		},
		{
			"buffer":0,
			"byteLength":816,
			"byteOffset":964104,
			"target":34962
		},
		{
			"buffer":0,
			"byteLength":816,
			"byteOffset":964920,
			"target":34962
		},
		{
			"buffer":0,
			"byteLength":544,
			"byteOffset":965736,
			"target":34962
		},
		{
			"buffer":0,
			"byteLength":396,
			"byteOffset":966280,
			"target":34963
		},
		{
			"buffer":0,
			"byteLength":1832,
			"byteOffset":966676
		},
		{
			"buffer":0,
			"byteLength":79035,
			"byteOffset":968508
		},
		{
			"buffer":0,
			"byteLength":25318,
			"byteOffset":1047544
		},
		{
			"buffer":0,
			"byteLength":15876,
			"byteOffset":1072864,
			"target":34962
		},
		{
			"buffer":0,
			"byteLength":15876,
			"byteOffset":1088740,
			"target":34962
		},
		{
			"buffer":0,
			"byteLength":10584,
			"byteOffset":1104616,
			"target":34962
		},
		{
			"buffer":0,
			"byteLength":14652,
			"byteOffset":1115200,
			"target":34963
		},
		{
			"buffer":0,
			"byteLength":1920,
			"byteOffset":1129852,
			"target":34962
		},
		{
			"buffer":0,
			"byteLength":1920,
			"byteOffset":1131772,
			"target":34962
		},
		{
			"buffer":0,
			"byteLength":1280,
			"byteOffset":1133692,
			"target":34962
		},
		{
			"buffer":0,
			"byteLength":1020,
			"byteOffset":1134972,
			"target":34963
		}
	],
	"samplers":[
		{
			"magFilter":9729,
			"minFilter":9987
		}
	],
	"buffers":[
		{
			"byteLength":1135992,
			"uri":"data:application/octet-stream;base64,"
		}
	]
}
