{
  "extras": {
    "id": [
      "c32201222c72eba4e9f6a22db4565075"
    ]
  },
  "accessors": [
    {
      "bufferView": 0,
      "byteOffset": 0,
      "componentType": 5125,
      "normalized": false,
      "count": 648,
      "type": "SCALAR",
      "max": [
        203
      ],
      "min": [
        0
      ]
    },
    {
      "bufferView": 1,
      "byteOffset": 0,
      "componentType": 5126,
      "normalized": false,
      "count": 204,
      "type": "VEC3",
      "max": [
        0.49039560556411743,
        0.8809810876846313,
        0.4512495696544647
      ],
      "min": [
        -0.5160775184631348,
        -0.9703746438026428,
        -0.49557554721832275
      ]
    },
    {
      "bufferView": 3,
      "byteOffset": 0,
      "componentType": 5126,
      "normalized": false,
      "count": 204,
      "type": "VEC2",
      "max": [
        0.9995819330215454,
        0.999579131603241
      ],
      "min": [
        0.0004180601972620934,
        0.0004208754107821733
      ]
    },
    {
      "bufferView": 4,
      "byteOffset": 0,
      "componentType": 5126,
      "normalized": false,
      "count": 204,
      "type": "VEC3",
      "max": [
        0.9969398975372314,
        0.8138883113861084,
        0.9901832342147827
      ],
      "min": [
        -0.9849939346313477,
        -0.9990016222000122,
        -0.9983691573143005
      ]
    }
  ],
  "asset": {
    "generator": "https://3dconvert.nsdt.cloud",
    "version": "2.0"
  },
  "bufferViews": [
    {
      "buffer": 0,
      "byteOffset": 0,
      "byteLength": 2592
    },
    {
      "buffer": 0,
      "byteOffset": 2592,
      "byteLength": 2448
    },
    {
      "buffer": 0,
      "byteOffset": 5040,
      "byteLength": 50576
    },
    {
      "buffer": 0,
      "byteOffset": 55616,
      "byteLength": 1632
    },
    {
      "buffer": 0,
      "byteOffset": 57248,
      "byteLength": 2448
    }
  ],
  "buffers": [
    {
      "uri": "data:application/octet-stream;base64,",
      "byteLength": 59696
    }
  ],
  "images": [
    {
      "mimeType": "image/png",
      "bufferView": 2
    }
  ],
  "materials": [
    {
      "pbrMetallicRoughness": {
        "baseColorFactor": [
          1.0,
          1.0,
          1.0,
          1.0
        ],
        "metallicFactor": 0.0,
        "roughnessFactor": 1.0,
        "baseColorTexture": {
          "index": 0,
          "texCoord": 0
        }
      },
      "emissiveFactor": [
        0.0,
        0.0,
        0.0
      ],
      "alphaMode": "OPAQUE",
      "alphaCutoff": 0.5,
      "doubleSided": true
    }
  ],
  "meshes": [
    {
      "extras": {
        "name": "c32201222c72eba4e9f6a22db4565075",
        "processed": true,
        "id": "c32201222c72eba4e9f6a22db4565075"
      },
      "primitives": [
        {
          "attributes": {
            "POSITION": 1,
            "NORMAL": 3,
            "TEXCOORD_0": 2
          },
          "indices": 0,
          "mode": 4,
          "material": 0
        }
      ],
      "name": "c32201222c72eba4e9f6a22db4565075"
    }
  ],
  "nodes": [
    {
      "children": [
        1
      ],
      "name": "world"
    },
    {
      "mesh": 0,
      "name": "c32201222c72eba4e9f6a22db4565075"
    }
  ],
  "scene": 0,
  "scenes": [
    {
      "nodes": [
        0
      ]
    }
  ],
  "textures": [
    {
      "source": 0
    }
  ]
}